<?xml version="1.0" encoding="utf-8"?>
<!-- Generator: Adobe Illustrator 16.0.0, SVG Export Plug-In . SVG Version: 6.00 Build 0)  -->
<!DOCTYPE svg PUBLIC "-//W3C//DTD SVG 1.1//EN" "http://www.w3.org/Graphics/SVG/1.1/DTD/svg11.dtd">
<svg version="1.1" id="Layer_1" xmlns="http://www.w3.org/2000/svg" xmlns:xlink="http://www.w3.org/1999/xlink" x="0px" y="0px"
	 width="64px" height="58px" viewBox="0 0 64 58" enable-background="new 0 0 64 58" xml:space="preserve">
<rect fill="#2F3E4E" width="64" height="58"/>
<g id="Logo_2_">
	<path fill="#FFFFFF" d="M37.988,39.689c0.24-0.029,0.48-0.063,0.719-0.105c0.111-0.02,0.223-0.039,0.332-0.063
		c0.256-0.053,0.512-0.117,0.762-0.186c0.072-0.021,0.146-0.037,0.219-0.059c0.314-0.096,0.621-0.203,0.924-0.322
		c0.094-0.037,0.182-0.078,0.273-0.117c0.213-0.09,0.424-0.186,0.631-0.289c0.107-0.053,0.215-0.109,0.32-0.166
		c0.195-0.104,0.389-0.215,0.576-0.332c0.094-0.057,0.188-0.109,0.277-0.168c0.266-0.172,0.523-0.354,0.773-0.547
		c0.061-0.047,0.117-0.098,0.178-0.146c0.193-0.154,0.385-0.316,0.568-0.482c0.033-0.033,0.066-0.066,0.102-0.098l-2-2.275
		c-0.252,0.24-0.523,0.461-0.803,0.67c-0.057,0.043-0.115,0.082-0.174,0.125c-0.328,0.232-0.67,0.451-1.029,0.639
		c-0.016,0.006-0.031,0.012-0.047,0.02c-0.348,0.18-0.713,0.33-1.088,0.461c-0.068,0.023-0.133,0.049-0.201,0.07
		c-0.377,0.123-0.766,0.219-1.164,0.287c-0.078,0.014-0.156,0.023-0.234,0.035c-0.416,0.061-0.838,0.104-1.27,0.104
		c-0.301,0-0.557-0.016-0.85-0.047C31.395,36.252,28,32.535,28,28.032V28.03c0,0,0-0.001,0-0.002c0-4.504,3.395-8.22,7.783-8.666
		c0.293-0.03,0.569-0.045,0.87-0.045c0.432,0,0.843,0.041,1.259,0.102c0.078,0.012,0.15,0.021,0.229,0.035
		c0.398,0.069,0.785,0.165,1.163,0.287c0.067,0.021,0.132,0.047,0.199,0.07c0.375,0.131,0.739,0.281,1.088,0.461
		c0.016,0.008,0.03,0.014,0.046,0.021c0.359,0.186,0.7,0.404,1.028,0.638c0.059,0.042,0.117,0.081,0.174,0.124
		c0.279,0.209,0.551,0.43,0.804,0.67l1.999-2.275c-0.034-0.031-0.067-0.064-0.102-0.097c-0.184-0.167-0.373-0.327-0.566-0.481
		c-0.061-0.049-0.118-0.102-0.18-0.149c-0.25-0.192-0.508-0.373-0.773-0.545c-0.09-0.06-0.184-0.112-0.276-0.169
		c-0.188-0.115-0.381-0.228-0.576-0.332c-0.106-0.057-0.214-0.112-0.321-0.166c-0.207-0.103-0.417-0.198-0.631-0.289
		c-0.091-0.039-0.181-0.08-0.273-0.117c-0.302-0.119-0.608-0.227-0.922-0.321c-0.073-0.022-0.148-0.038-0.223-0.06
		c-0.25-0.069-0.504-0.133-0.76-0.186c-0.109-0.023-0.221-0.043-0.332-0.063c-0.238-0.043-0.478-0.076-0.719-0.105
		c-0.105-0.012-0.21-0.025-0.316-0.035c-0.342-0.029-0.688-0.05-1.039-0.05c-0.406,0-0.807,0.021-1.201,0.061
		c-5.922,0.603-10.543,5.604-10.545,11.685c0.002,6.08,4.623,11.082,10.545,11.685c0.395,0.039,0.795,0.061,1.201,0.061
		c0.351,0,0.697-0.021,1.039-0.051C37.777,39.715,37.883,39.701,37.988,39.689z"/>
	<g>
		<path fill="#60C126" d="M24.84,17.656c-4.135-2.458-7.518-0.533-7.518,4.278v12.449c0,4.811,3.383,6.735,7.519,4.278l10.152-6.034
			c4.135-2.458,4.135-6.479,0-8.937L24.84,17.656z"/>
		<path fill="none" stroke="#2F3E4E" stroke-width="1.1368" stroke-miterlimit="10" d="M24.84,17.656
			c-4.135-2.458-7.518-0.533-7.518,4.278v12.449c0,4.811,3.383,6.735,7.519,4.278l10.152-6.034c4.135-2.458,4.135-6.479,0-8.937
			L24.84,17.656z"/>
	</g>
	<text transform="matrix(1 0 0 1 21.542 30.626)" fill="#FFFFFF" font-family="'NexaBold'" font-size="8.7554">So</text>
</g>
</svg>
