<?xml version="1.0" encoding="utf-8"?>
<!-- Generator: Adobe Illustrator 16.0.0, SVG Export Plug-In . SVG Version: 6.00 Build 0)  -->
<!DOCTYPE svg PUBLIC "-//W3C//DTD SVG 1.1//EN" "http://www.w3.org/Graphics/SVG/1.1/DTD/svg11.dtd">
<svg version="1.1" id="Layer_1" xmlns="http://www.w3.org/2000/svg" xmlns:xlink="http://www.w3.org/1999/xlink" x="0px" y="0px"
	 width="1280px" height="14px" viewBox="0 0 1280 14" enable-background="new 0 0 1280 14" xml:space="preserve">
<path fill="#FFFFFF" d="M1279.998,14V6.571c-3.379-0.504-7.066-0.92-9.869-1.057c-20.25,0.185-4.204,3.262-18.08,3.947
	l-17.896-1.624l-0.222,0.947c-2.849,0.636-4.493-0.41-5.239-0.634c1.219,1.404-14.576,0.455-21.865,0.686l2.62-1.221
	c-20.288-2.895-32.018,3.082-48.04,1.552l-11.301-2.091l-2.347,1.813c-6.61-1.076-7.783-2.49-18.612-1.849
	c-38.103,3.176-79.06-0.706-117.671,1.296c0.326-0.252,0.986-0.393,2.106-0.544c-32.69,3.956-51.667-4.813-81.638-1.343l2.095,0.677
	c-15.529-0.361,2.124,0.677-9.178,1.676c-2.141-2.212-23.982,0.009-28.468-0.397c-9.916-3.168-31.301-2.846-47.072-3.793
	c-1.897,1.451-15.521,2.722-22.588,5.074c-1.646-0.523-4.563-1.638-7.213-2.722c-5.711,0.935-9.978,0.214-14.06-0.642
	c5.027,0.044-3.084-1.438-6.305-1.184c-1.965-0.261-4.054-0.404-6.384-0.25l1.044,0.174c-0.365,0.236-0.846,0.383-1.332,0.532
	c-10.098,0.726-14.21,1.169-14.439,1.723c-11.103,1.641-18.962-1.441-35.108-0.302c1.044,0.173,3.115,0.528,2.347,1.099
	c-5.688,0.436-10.975-0.797-12.276-1.719c-1.425,1.512-13.67,2.604-19.74,1.936c-5.314-1.247-4.547-1.819-14.202-1.69l4.241,1.067
	c-11.027,0.863-9.422-1.42-17.852-0.764c2.93-0.178,3.023,0.782,0.434,0.982c-11.88-0.592-12.153-1.177-20.66-3.313l1.568,1.672
	c-9.507-0.941-26.967-2.812-29.119-1.124c1.213-3.02-22.542-1.48-31.021-1.418c3.022,0.104,3.57,0.837,3.876,1.207
	c-18.445-2.301-37.339-0.073-56.005-0.112l-2.971,2.535c-9.869-0.1-12.68-5.106-23.38-4.998l3.869,1.215
	c-18.971-0.405-26.632-0.192-41.978,0.241l0.297,1.699c-5.491-0.791-12.353-0.782-17.89-1.574
	c-12.526,4.128-49.715-2.173-72.669,2.436l-1.446-3.17c-8.773,0.065-20.015-0.565-24.134,1.811l1.95-0.047
	c0.868,2.423-8.781,0.054-14.249,0.59c-4.143-0.264-8.286-1.844-4.722-2.323c-23.304,1.608-57.917-0.058-72.417,2.81
	c-23.358-1.039-40.981-3.554-66.204-3.227l0.297,0.373c-8.507,0.428-25.551,1.286-25.505,3.928
	c-18.163-0.615-29.747-4.249-51.406-3.073l4.691,1.009c-5.491,0.522-14.303-0.739-16.496-1.05c-1.919,0.053-0.518,0.578-0.251,0.949
	c-5.186,0.902-8.255-0.523-12.398-0.783l1.683,0.896C101.941,6.9,54.427,5.033,52.782,5.456c-4.554-1.474-13.078-2.035-21.625-2.312
	c-4.274-0.139-8.552-0.207-12.344-0.283c-1.896-0.047-3.67-0.09-5.26-0.129c-0.795-0.031-1.544-0.062-2.24-0.088
	c-0.348-0.019-0.682-0.035-1.002-0.054c-0.16-0.009-0.316-0.019-0.469-0.028C9.548,2.552,8.724,3.264,8.113,3.251
	c-0.656-0.005-1.292-0.01-1.91-0.017C4.967,3.23,3.807,3.241,2.717,3.262C1.754,3.281,0.856,3.309,0,3.344V14H1279.998z"/>
</svg>
